<svg width="82" height="24" viewBox="0 0 82 24" fill="none" xmlns="http://www.w3.org/2000/svg">
  <!-- Icon -->
  <g transform="translate(0, 0)">
    <path d="M3.61132 16.102L0 18.2021V6.36184L3.61132 4.26173V16.102Z" fill="white"/>
    <path d="M10.9985 9.49747L7.3872 11.5976V2.10182L10.9985 0V9.49747Z" fill="white"/>
    <path d="M12.2639 10.2323L10.9985 9.49747L7.3872 11.5976L12.2639 14.4342V10.2323Z" fill="white"/>
    <path d="M19.1625 18.2021L15.5512 16.102V16.1003L9.19194 19.7981V24L19.1625 18.2021Z" fill="white"/>
    <path d="M15.5513 4.26173V14.4837V16.1002V16.102L19.1626 18.2021V15.7636V6.36184L15.5513 4.26173Z" fill="white"/>
  </g>
  <!-- ILITY Text -->
  <g transform="translate(26.5, 4)">
    <path d="M0 15.9328V0H2.52572V15.9328H0Z" fill="white"/>
    <path d="M17.4207 15.9328H6.25594V0H8.78166V13.6259H17.4207V15.9328Z" fill="white"/>
    <path d="M20.1583 15.9328V0H22.684V15.9328H20.1583Z" fill="white"/>
    <path d="M33.1889 2.30687V15.9328H30.6394V2.30687H25.0927V0H38.7594V2.30687H33.1889Z" fill="white"/>
    <path d="M48.5555 15.9328H46.0297V10.6543L39.6332 0.00170027H42.4422L47.3053 7.99202L52.1447 0.00170027H55.0487L48.5572 10.6082V15.9345L48.5555 15.9328Z" fill="white"/>
  </g>
</svg>
